<?xml version="1.0" standalone="no"?>
<!DOCTYPE svg PUBLIC "-//W3C//DTD SVG 20010904//EN"
 "http://www.w3.org/TR/2001/REC-SVG-20010904/DTD/svg10.dtd">
<svg version="1.0" xmlns="http://www.w3.org/2000/svg"
 width="1428.000000pt" height="1428.000000pt" viewBox="0 0 1428.000000 1428.000000"
 preserveAspectRatio="xMidYMid meet">

<g transform="translate(0.000000,1428.000000) scale(0.100000,-0.100000)"
fill="#000000" stroke="none">
<path d="M6970 14273 c-1465 -31 -2903 -526 -4085 -1408 -685 -511 -1301
-1169 -1752 -1875 -601 -939 -962 -1961 -1087 -3075 -54 -477 -54 -1073 0
-1550 125 -1114 486 -2136 1087 -3075 448 -701 1062 -1360 1742 -1868 926
-693 2010 -1151 3155 -1331 582 -92 1279 -109 1870 -46 1273 137 2463 604
3497 1373 1585 1179 2618 2976 2832 4927 31 281 41 474 41 795 0 431 -26 764
-91 1160 -316 1936 -1424 3655 -3072 4769 -397 268 -920 542 -1372 718 -870
340 -1815 506 -2765 486z m-1679 -1787 c213 -75 343 -258 343 -481 -1 -281
-225 -505 -504 -505 -234 0 -441 164 -495 391 -60 255 83 511 335 596 93 32
230 31 321 -1z m3989 9 c149 -40 263 -132 330 -269 79 -162 74 -330 -16 -484
-167 -285 -576 -330 -802 -88 -190 205 -187 511 8 706 125 125 316 179 480
135z m-1948 -1558 c174 -63 305 -207 353 -387 22 -80 19 -215 -5 -291 -28 -89
-66 -152 -150 -244 -90 -99 -121 -144 -170 -247 -169 -352 -116 -854 142
-1348 120 -230 236 -385 461 -613 250 -255 629 -452 1035 -539 92 -20 134 -23
307 -22 173 0 211 3 279 22 169 47 293 115 418 229 132 122 237 172 378 180
268 16 520 -174 575 -434 19 -86 18 -140 0 -228 -73 -345 -454 -536 -770 -386
-55 26 -105 61 -160 111 -190 172 -355 246 -612 272 -272 28 -618 -49 -948
-213 -254 -125 -411 -240 -657 -480 -98 -97 -143 -150 -201 -239 -183 -281
-299 -564 -349 -855 -27 -160 -22 -416 12 -540 43 -159 118 -291 253 -442 142
-160 185 -320 137 -508 -52 -204 -211 -363 -411 -410 -344 -81 -674 189 -672
550 1 149 42 246 165 382 167 185 244 359 269 609 36 352 -110 834 -370 1221
-141 210 -396 476 -560 584 -351 232 -760 369 -1102 369 -309 0 -504 -76 -744
-290 -186 -166 -412 -195 -629 -83 -327 170 -395 610 -134 871 106 107 244
164 396 163 149 0 262 -47 388 -163 180 -165 345 -241 585 -269 364 -42 840
98 1239 366 145 97 206 148 387 327 157 154 230 258 349 493 87 174 159 372
195 545 31 144 33 434 5 555 -41 177 -116 321 -235 449 -123 132 -170 232
-178 381 -15 259 157 497 409 565 98 27 225 22 320 -13z m-2250 -842 c407 -86
671 -481 594 -889 -30 -155 -94 -274 -211 -391 -84 -84 -154 -131 -255 -172
-266 -107 -584 -48 -793 147 -79 74 -149 169 -186 255 -62 140 -78 330 -41
484 60 250 260 465 506 545 116 38 269 46 386 21z m4420 0 c300 -63 530 -295
592 -597 96 -464 -266 -907 -742 -908 -307 0 -587 186 -707 471 -74 175 -74
403 0 580 97 231 317 409 566 458 70 14 218 12 291 -4z m-7119 -440 c123 -26
239 -103 311 -207 114 -166 116 -396 6 -568 -71 -111 -211 -199 -349 -221
-259 -42 -517 138 -571 398 -57 274 126 547 405 603 62 12 124 11 198 -5z
m9730 -10 c143 -30 281 -136 344 -265 40 -82 53 -136 53 -230 0 -94 -13 -148
-53 -230 -93 -189 -316 -304 -525 -271 -251 39 -432 249 -432 501 0 195 109
371 282 454 115 55 210 67 331 41z m-7031 -3970 c151 -31 270 -97 383 -210
117 -117 181 -236 211 -391 35 -186 2 -373 -97 -542 -44 -73 -178 -207 -251
-251 -143 -83 -271 -115 -433 -108 -203 9 -356 77 -500 222 -73 72 -100 108
-138 181 -117 228 -117 480 0 708 86 168 256 311 439 370 116 38 269 46 386
21z m4420 0 c244 -51 453 -223 546 -448 186 -448 -75 -942 -551 -1044 -98 -21
-267 -13 -362 17 -210 66 -401 231 -480 415 -63 146 -82 327 -50 471 66 302
303 534 606 593 70 14 218 12 291 -4z m-7070 -64 c252 -87 393 -342 333 -600
-63 -265 -338 -438 -599 -377 -238 56 -400 256 -400 496 0 237 165 443 398
496 77 17 193 11 268 -15z m9733 -11 c245 -85 392 -350 330 -595 -44 -173
-167 -309 -330 -365 -296 -102 -618 95 -665 408 -39 254 130 502 386 567 76
19 200 13 279 -15z m-6895 -2840 c154 -45 272 -161 331 -326 31 -85 31 -225 0
-314 -72 -211 -265 -350 -483 -350 -304 0 -544 276 -501 576 38 262 276 457
533 437 30 -2 84 -13 120 -23z m4003 5 c226 -59 380 -256 381 -490 0 -208
-122 -393 -313 -471 -93 -39 -240 -45 -338 -15 -188 57 -328 220 -356 416 -51
350 284 649 626 560z"/>
</g>
</svg>
